<svg viewBox="0 0 40 40" fill="none" xmlns="http://www.w3.org/2000/svg">
<path d="M36.5002 20C36.5002 19.8167 36.4002 19.6334 36.3502 19.45C36.273 19.1266 36.1728 18.8091 36.0502 18.5C35.9668 18.3 35.8502 18.1 35.7502 17.8834C35.6502 17.6667 35.5002 17.3834 35.3502 17.15C35.2002 16.9167 35.0002 16.8 35.0002 16.6667C35.0002 16.5334 34.6668 16.25 34.4835 16.05C34.3002 15.85 34.1335 15.7167 33.9502 15.55L33.3335 15L32.7335 14.6C32.498 14.4559 32.253 14.3278 32.0002 14.2167L31.3502 13.9167C31.0779 13.8159 30.7996 13.7324 30.5168 13.6667C30.2928 13.6008 30.0645 13.5507 29.8335 13.5167L29.4502 13.3334C28.7701 11.3685 27.4944 9.66439 25.8007 8.4583C24.107 7.25221 22.0794 6.60406 20.0002 6.60406C17.9209 6.60406 15.8933 7.25221 14.1996 8.4583C12.5059 9.66439 11.2302 11.3685 10.5502 13.3334L10.2502 13.4167C10.0192 13.4507 9.79083 13.5008 9.56683 13.5667C9.28406 13.6324 9.00572 13.7159 8.7335 13.8167L8.0835 14.1167C7.8307 14.2278 7.5857 14.3559 7.35016 14.5L6.75016 15L6.1335 15.5167C5.95016 15.6834 5.76683 15.8334 5.60016 16.0167C5.4335 16.2 5.25016 16.4334 5.0835 16.6334C4.91683 16.8334 4.7835 17.0167 4.65016 17.2334C4.51683 17.45 4.3835 17.7167 4.25016 17.9667C4.11683 18.2167 4.0335 18.3834 3.95016 18.5834C3.82757 18.8924 3.72731 19.2099 3.65016 19.5334C3.65016 19.7167 3.5335 19.9 3.50016 20.0834C3.39642 20.6049 3.34064 21.1349 3.3335 21.6667C3.34131 22.1755 3.39148 22.6828 3.4835 23.1834C3.4835 23.35 3.56683 23.5 3.60016 23.6667C3.68254 23.9941 3.78269 24.3168 3.90016 24.6334L4.10016 25.1167C4.24688 25.4381 4.41388 25.7498 4.60016 26.05L4.8335 26.4167C4.85747 26.4634 4.88535 26.508 4.91683 26.55L5.00016 26.6667C5.77639 27.7017 6.78292 28.5417 7.94005 29.1203C9.09718 29.6988 10.3731 30 11.6668 30H16.6668V27.7167C16.1604 28.0105 15.5856 28.1657 15.0002 28.1667C14.0973 28.1583 13.2344 27.7927 12.6002 27.15C12.2956 26.835 12.0562 26.463 11.8956 26.0554C11.735 25.6478 11.6563 25.2125 11.664 24.7744C11.6717 24.3363 11.7658 23.9041 11.9407 23.5024C12.1156 23.1007 12.368 22.7374 12.6835 22.4334L17.6835 17.6C18.3056 17.0004 19.1362 16.6658 20.0002 16.6667C20.8828 16.6704 21.7279 17.024 22.3502 17.65L27.3502 22.65C27.971 23.2746 28.3195 24.1194 28.3195 25C28.3195 25.8806 27.971 26.7255 27.3502 27.35C26.7279 27.976 25.8828 28.3296 25.0002 28.3334C24.4139 28.3389 23.8373 28.1832 23.3335 27.8834V30H28.3335C29.6272 30 30.9032 29.6988 32.0603 29.1203C33.2174 28.5417 34.2239 27.7017 35.0002 26.6667L35.0835 26.5834C35.115 26.5413 35.1429 26.4967 35.1668 26.45L35.4002 26.0834C35.5864 25.7832 35.7535 25.4714 35.9002 25.15L36.1002 24.6667C36.2176 24.3502 36.3178 24.0275 36.4002 23.7C36.4002 23.5334 36.4835 23.3834 36.5168 23.2167C36.6107 22.7052 36.6609 22.1867 36.6668 21.6667C36.6649 21.1071 36.6091 20.5489 36.5002 20Z" fill="#707579"/>
<path d="M21.1835 18.8167C20.8719 18.5113 20.4531 18.3403 20.0168 18.3403C19.5806 18.3403 19.1617 18.5113 18.8502 18.8167L13.8502 23.65C13.6733 23.796 13.5285 23.9768 13.4247 24.1813C13.3209 24.3857 13.2605 24.6094 13.2471 24.8383C13.2337 25.0672 13.2677 25.2964 13.3469 25.5115C13.4262 25.7267 13.549 25.9232 13.7076 26.0887C13.8663 26.2543 14.0573 26.3853 14.2689 26.4736C14.4805 26.5619 14.7081 26.6056 14.9373 26.602C15.1666 26.5984 15.3926 26.5475 15.6013 26.4525C15.81 26.3575 15.9968 26.2205 16.1502 26.05L18.3335 23.9334V33.3334C18.3335 33.7754 18.5091 34.1993 18.8217 34.5119C19.1342 34.8244 19.5581 35 20.0002 35C20.4422 35 20.8661 34.8244 21.1787 34.5119C21.4912 34.1993 21.6668 33.7754 21.6668 33.3334V24.0167L23.8168 26.1834C23.9718 26.3396 24.1561 26.4636 24.3592 26.5482C24.5623 26.6328 24.7801 26.6764 25.0002 26.6764C25.2202 26.6764 25.438 26.6328 25.6411 26.5482C25.8442 26.4636 26.0286 26.3396 26.1835 26.1834C26.3397 26.0284 26.4637 25.8441 26.5483 25.641C26.6329 25.4379 26.6765 25.22 26.6765 25C26.6765 24.78 26.6329 24.5622 26.5483 24.3591C26.4637 24.156 26.3397 23.9716 26.1835 23.8167L21.1835 18.8167Z" fill="#707579"/>
</svg>
