<svg viewBox="0 0 18 18" fill="none" xmlns="http://www.w3.org/2000/svg">
<path d="M6.75 7.5C7.57843 7.5 8.25 6.82843 8.25 6C8.25 5.17157 7.57843 4.5 6.75 4.5C5.92157 4.5 5.25 5.17157 5.25 6C5.25 6.82843 5.92157 7.5 6.75 7.5Z" stroke="white" stroke-width="1.5" stroke-linecap="round" stroke-linejoin="round"/>
<path d="M9.75 1.5H6.75C3 1.5 1.5 3 1.5 6.75V11.25C1.5 15 3 16.5 6.75 16.5H11.25C15 16.5 16.5 15 16.5 11.25V7.5" stroke="white" stroke-width="1.5" stroke-linecap="round" stroke-linejoin="round"/>
<path d="M14.3552 1.94249L11.6327 4.66499C11.5277 4.76999 11.4227 4.97249 11.4077 5.12249L11.2577 6.16499C11.2052 6.53999 11.4677 6.80249 11.8427 6.74999L12.8852 6.59999C13.0277 6.57749 13.2377 6.47999 13.3427 6.37499L16.0652 3.65249C16.5377 3.17999 16.7552 2.63999 16.0652 1.94999C15.3677 1.24499 14.8277 1.46999 14.3552 1.94249Z" stroke="white" stroke-width="1.5" stroke-miterlimit="10" stroke-linecap="round" stroke-linejoin="round"/>
<path d="M13.9648 2.33252C14.1973 3.15752 14.8423 3.80252 15.6673 4.03502" stroke="white" stroke-width="1.5" stroke-miterlimit="10" stroke-linecap="round" stroke-linejoin="round"/>
<path d="M2.00244 14.2124L5.69994 11.7299C6.29244 11.3324 7.14744 11.3774 7.67994 11.8349L7.92744 12.0524C8.51244 12.5549 9.45744 12.5549 10.0424 12.0524L13.1624 9.37492C13.7474 8.87242 14.6924 8.87242 15.2774 9.37492L16.4999 10.4249" stroke="white" stroke-width="1.5" stroke-linecap="round" stroke-linejoin="round"/>
</svg>
