<svg viewBox="0 0 25 24" xmlns="http://www.w3.org/2000/svg">
<path d="M14.4894 2.56942H7.35624C6.39786 2.56941 5.60687 2.5694 4.96253 2.62204C4.29331 2.67672 3.67812 2.79407 3.10029 3.08849C2.2042 3.54507 1.47565 4.27362 1.01907 5.16971C0.724645 5.74755 0.607296 6.36273 0.552618 7.03195C0.499974 7.67629 0.499986 8.46726 0.5 9.42564V17.1438C0.499997 17.3396 0.499995 17.5285 0.500441 17.7105L5.22197 13.5136L8.1505 15.8564L14.4284 9.57848L10.0246 7.92707V4.35531L14.4894 2.56942Z" />
<path d="M15.5709 11.8035L8.32722 19.0472L5.3028 16.6276L0.741883 20.6818C0.810508 20.9279 0.900406 21.1668 1.01907 21.3997C1.47565 22.2958 2.2042 23.0244 3.10029 23.4809C3.67812 23.7754 4.29331 23.8927 4.96253 23.9474C5.60687 24 6.39784 24 7.35621 24H15.0744C16.0327 24 16.8237 24 17.4681 23.9474C18.1373 23.8927 18.7525 23.7754 19.3303 23.4809C20.2264 23.0244 20.9549 22.2958 21.4115 21.3997C21.7059 20.8219 21.8233 20.2067 21.878 19.5375C21.9306 18.8931 21.9306 18.1022 21.9306 17.1438V9.71295L20.1446 14.4753H16.5729L15.5709 11.8035Z" />
<path fill-rule="evenodd" clip-rule="evenodd" d="M16.4 4.18233L17.7941 0H18.9236L20.3177 4.18233L24.5 5.57644V6.70593L20.3177 8.10004L18.9236 12.2824H17.7941L16.4 8.10004L12.2176 6.70593V5.57644L16.4 4.18233Z" />
</svg>
