<svg viewBox="0 0 24 24" fill="none" xmlns="http://www.w3.org/2000/svg">
<path d="M16.65 2H7.35C4.4 2 2 4.4 2 7.35V12.93C2 15.88 4.4 18.28 7.35 18.28H16.65C19.6 18.28 22 15.88 22 12.93V7.35C22 4.4 19.6 2 16.65 2ZM14.5 8.3C14.5 7.75 14.95 7.3 15.5 7.3C16.05 7.3 16.5 7.75 16.5 8.3C16.5 8.85 16.05 9.31 15.5 9.31C14.95 9.31 14.5 8.87 14.5 8.32V8.3ZM10.13 12.35C9.98 12.5 9.79 12.57 9.6 12.57C9.41 12.57 9.22 12.5 9.07 12.35L8.04 11.32L7.05 12.31C6.9 12.46 6.71 12.53 6.52 12.53C6.33 12.53 6.14 12.46 5.99 12.31C5.85052 12.1689 5.7723 11.9784 5.7723 11.78C5.7723 11.5816 5.85052 11.3911 5.99 11.25L6.98 10.26L6.02 9.3C5.88052 9.15886 5.8023 8.96843 5.8023 8.77C5.8023 8.57157 5.88052 8.38114 6.02 8.24C6.31 7.95 6.79 7.95 7.08 8.24L8.04 9.2L9.03 8.21C9.32 7.92 9.8 7.92 10.09 8.21C10.38 8.5 10.38 8.98 10.09 9.27L9.1 10.26L10.13 11.29C10.42 11.58 10.42 12.06 10.13 12.35ZM13.54 11.28C12.99 11.28 12.53 10.83 12.53 10.28C12.53 9.73 12.97 9.28 13.52 9.28H13.54C14.09 9.28 14.54 9.73 14.54 10.28C14.54 10.83 14.1 11.28 13.54 11.28ZM15.5 13.25C14.95 13.25 14.5 12.81 14.5 12.26V12.24C14.5 11.69 14.95 11.24 15.5 11.24C16.05 11.24 16.5 11.69 16.5 12.24C16.5 12.79 16.06 13.25 15.5 13.25ZM17.48 11.28C16.93 11.28 16.47 10.83 16.47 10.28C16.47 9.73 16.91 9.28 17.46 9.28H17.48C18.03 9.28 18.48 9.73 18.48 10.28C18.48 10.83 18.04 11.28 17.48 11.28Z" fill="#A0D035"/>
<path d="M13.6404 18.99L13.6304 19.93C13.6225 20.358 13.4477 20.766 13.1431 21.0668C12.8385 21.3677 12.4284 21.5375 12.0004 21.54C11.8504 21.54 11.7604 21.64 11.7604 21.77C11.7604 21.9 11.8604 22 11.9904 22H10.3804C10.3704 21.93 10.3604 21.85 10.3604 21.77C10.3604 20.87 11.0904 20.14 11.9804 20.14C12.1304 20.14 12.2304 20.04 12.2304 19.91L12.2404 18.97C12.2504 18.59 12.5604 18.28 12.9404 18.28H12.9504C13.3404 18.28 13.6404 18.6 13.6404 18.99Z" fill="#A0D035"/>
</svg>
