<svg viewBox="0 0 16 16" fill="none" xmlns="http://www.w3.org/2000/svg">
<path d="M11.2666 11.2667C13.0666 9.46666 13.0666 6.46666 11.2666 4.66666" stroke="url(#paint0_linear_4381_1129)" stroke-opacity="0.17" stroke-miterlimit="10" stroke-linecap="round" stroke-linejoin="round"/>
<path d="M4.73379 4.73334C2.93379 6.53334 2.93379 9.53334 4.73379 11.3333" stroke="url(#paint1_linear_4381_1129)" stroke-opacity="0.17" stroke-miterlimit="10" stroke-linecap="round" stroke-linejoin="round"/>
<path d="M6.4668 9.06667C6.4668 9.66667 6.93346 10.1333 7.53346 10.1333H8.6668C9.13346 10.1333 9.60013 9.73334 9.60013 9.2C9.60013 8.6 9.33346 8.4 9.00013 8.26667L7.13346 7.6C6.6668 7.53334 6.4668 7.33334 6.4668 6.8C6.4668 6.26667 6.8668 5.86667 7.40013 5.86667H8.60013C9.20013 5.86667 9.6668 6.33334 9.6668 6.93334" stroke="url(#paint2_linear_4381_1129)" stroke-opacity="0.17" stroke-linecap="round" stroke-linejoin="round"/>
<path d="M8 5.20001V10.8" stroke="url(#paint3_linear_4381_1129)" stroke-opacity="0.17" stroke-linecap="round" stroke-linejoin="round"/>
<path d="M7.99967 14.6667C11.6816 14.6667 14.6663 11.6819 14.6663 8.00001C14.6663 4.31811 11.6816 1.33334 7.99967 1.33334C4.31778 1.33334 1.33301 4.31811 1.33301 8.00001C1.33301 11.6819 4.31778 14.6667 7.99967 14.6667Z" stroke="url(#paint4_linear_4381_1129)" stroke-opacity="0.17" stroke-miterlimit="10" stroke-linecap="round" stroke-linejoin="round"/>
<defs>
<linearGradient id="paint0_linear_4381_1129" x1="11.9416" y1="4.66666" x2="11.9416" y2="11.2667" gradientUnits="userSpaceOnUse">
<stop stop-color="#A1DF24"/>
<stop offset="1"/>
</linearGradient>
<linearGradient id="paint1_linear_4381_1129" x1="4.05879" y1="4.73334" x2="4.05879" y2="11.3333" gradientUnits="userSpaceOnUse">
<stop stop-color="#A1DF24"/>
<stop offset="1"/>
</linearGradient>
<linearGradient id="paint2_linear_4381_1129" x1="8.0668" y1="5.86667" x2="8.0668" y2="10.1333" gradientUnits="userSpaceOnUse">
<stop stop-color="#A1DF24"/>
<stop offset="1"/>
</linearGradient>
<linearGradient id="paint3_linear_4381_1129" x1="8.5" y1="5.20001" x2="8.5" y2="10.8" gradientUnits="userSpaceOnUse">
<stop stop-color="#A1DF24"/>
<stop offset="1"/>
</linearGradient>
<linearGradient id="paint4_linear_4381_1129" x1="7.99967" y1="1.33334" x2="7.99967" y2="14.6667" gradientUnits="userSpaceOnUse">
<stop stop-color="#A1DF24"/>
<stop offset="1"/>
</linearGradient>
</defs>
</svg>
