<svg viewBox="0 0 36 36" fill="none" xmlns="http://www.w3.org/2000/svg">
<path fill-rule="evenodd" clip-rule="evenodd" d="M10.5777 16.3958L12.7114 9.99488H15.4712L17.6048 16.3958L24.0058 18.5295V21.2893L17.6048 23.4229L15.4712 29.8239H12.7114L10.5777 23.4229L4.17676 21.2893V18.5295L10.5777 16.3958ZM14.0913 15.0545L13.1075 18.0057L12.1876 18.9257L9.2364 19.9094L12.1876 20.8931L13.1075 21.8131L14.0913 24.7643L15.075 21.8131L15.9949 20.8931L18.9461 19.9094L15.9949 18.9257L15.075 18.0057L14.0913 15.0545Z" fill="black"/>
<path fill-rule="evenodd" clip-rule="evenodd" d="M23.765 7.7649L24.8997 4.36069H26.5556L27.6903 7.7649L31.0945 8.89963V10.5555L27.6903 11.6903L26.5556 15.0945H24.8997L23.765 11.6903L20.3607 10.5555V8.89963L23.765 7.7649Z" fill="black"/>
</svg>
