<svg viewBox="0 0 23 24" xmlns="http://www.w3.org/2000/svg">
<path fill-rule="evenodd" clip-rule="evenodd" d="M5.6189 0L4.3642 3.71484L0.600098 4.95312V5.95636L4.3642 7.19464L5.6189 10.9095H6.63545L7.89015 7.19464L11.6543 5.95636V4.95312L9.96457 4.39726L13.6278 4.39726V7.04103L9.34167 8.62729L7.73437 12.8573H4.51978L2.93804 8.69472C2.91253 9.20038 2.91254 9.79453 2.91255 10.4871V14.1694C2.91253 15.0207 2.91252 15.7232 2.9599 16.2955C3.00911 16.89 3.11473 17.4364 3.37971 17.9496C3.79063 18.7456 4.44633 19.3927 5.25281 19.7982C5.77286 20.0597 6.32653 20.164 6.92883 20.2125C7.50874 20.2593 8.22064 20.2593 9.0832 20.2593H9.30808L12.5563 24L15.8046 20.2593H16.0294C16.892 20.2593 17.6039 20.2593 18.1838 20.2125C18.7861 20.164 19.3398 20.0597 19.8598 19.7982C20.6663 19.3927 21.322 18.7456 21.7329 17.9496C21.9979 17.4364 22.1035 16.89 22.1527 16.2955C22.2001 15.7232 22.2001 15.0207 22.2001 14.1694V10.4871C22.2001 9.63585 22.2001 8.93329 22.1527 8.36098C22.1035 7.76656 21.9979 7.22014 21.7329 6.7069C21.322 5.91097 20.6663 5.26385 19.8598 4.85831C19.3398 4.5968 18.7861 4.49256 18.1838 4.444C17.6039 4.39724 16.892 4.39725 16.0295 4.39726L9.96457 4.39726L7.89015 3.71484L6.63545 0H5.6189ZM14.1911 9.51756L13.4722 11.6461L11.3154 12.3557V13.3589L13.4722 14.0684L14.1911 16.197H15.2077L15.9266 14.0684L18.0834 13.3589V12.3557L15.9266 11.6461L15.2077 9.51756H14.1911Z" fill="black"/>
</svg>
