<svg viewBox="0 0 25 24" xmlns="http://www.w3.org/2000/svg">
<path d="M15.463 11.9175C15.598 11.9775 15.7405 12 15.8755 12C16.183 12 16.483 11.8725 16.7005 11.64L18.4555 9.75H20.7505C21.988 9.75 23.0005 8.7375 23.0005 7.5V3.75C23.0005 2.5125 21.988 1.5 20.7505 1.5H14.7505C13.513 1.5 12.5005 2.5125 12.5005 3.75V7.4925C12.5005 8.73 13.513 9.7425 14.7505 9.7425V10.8675C14.7505 11.34 15.028 11.745 15.463 11.9175ZM8.37549 13.5C6.30549 13.5 4.62549 11.82 4.62549 9.75C4.62549 7.68 6.30549 6 8.37549 6C10.4455 6 12.1255 7.68 12.1255 9.75C12.1255 11.82 10.4455 13.5 8.37549 13.5ZM8.37549 22.4925C6.20049 22.4925 4.53549 21.8925 3.41049 20.7165C1.96224 19.2052 1.99599 17.2778 1.99974 17.088V17.0753C2.00049 15.945 2.94549 15 4.11549 15H12.6355C13.798 15 14.7505 15.9442 14.7505 17.1127V17.1202C14.7535 17.2568 14.7955 19.1978 13.3405 20.724C12.2155 21.9007 10.5505 22.5 8.37549 22.5V22.4925Z"/>
</svg>
