<svg viewBox="0 0 24 25" xmlns="http://www.w3.org/2000/svg">
<path d="M22.6471 12.0022C21.6528 7.5074 20.1566 5.10834 17.9371 4.45302C17.4705 4.31615 16.9865 4.24778 16.5003 4.25005C15.8577 4.25005 15.298 4.40662 14.706 4.57255C13.9925 4.77271 13.1821 5.00005 12.0003 5.00005C10.8186 5.00005 10.0077 4.77318 9.29284 4.57302C8.70034 4.40662 8.14112 4.25005 7.50034 4.25005C6.99757 4.24829 6.497 4.31644 6.013 4.45255C3.80518 5.10505 2.30987 7.50318 1.30112 11.9994C0.216434 16.8379 0.75034 19.8927 2.79831 20.6015C3.07903 20.7004 3.3744 20.7515 3.67206 20.7524C5.07503 20.7524 6.20003 19.5838 6.96878 18.6271C7.83737 17.5443 8.85409 16.9949 12.0003 16.9949C14.8105 16.9949 15.9735 17.376 16.978 18.6271C17.6094 19.4136 18.2061 19.964 18.8014 20.3104C19.5932 20.7707 20.3844 20.8729 21.1527 20.609C22.363 20.196 23.0567 19.1043 23.2152 17.3633C23.3357 16.0283 23.15 14.2747 22.6471 12.0022ZM9.75034 11.7501H8.25034V13.2501C8.25034 13.449 8.17132 13.6397 8.03067 13.7804C7.89002 13.921 7.69925 14.0001 7.50034 14.0001C7.30143 14.0001 7.11066 13.921 6.97001 13.7804C6.82936 13.6397 6.75034 13.449 6.75034 13.2501V11.7501H5.25034C5.05143 11.7501 4.86066 11.671 4.72001 11.5304C4.57936 11.3897 4.50034 11.199 4.50034 11.0001C4.50034 10.8011 4.57936 10.6104 4.72001 10.4697C4.86066 10.3291 5.05143 10.2501 5.25034 10.2501H6.75034V8.75005C6.75034 8.55114 6.82936 8.36038 6.97001 8.21972C7.11066 8.07907 7.30143 8.00005 7.50034 8.00005C7.69925 8.00005 7.89002 8.07907 8.03067 8.21972C8.17132 8.36038 8.25034 8.55114 8.25034 8.75005V10.2501H9.75034C9.94925 10.2501 10.14 10.3291 10.2807 10.4697C10.4213 10.6104 10.5003 10.8011 10.5003 11.0001C10.5003 11.199 10.4213 11.3897 10.2807 11.5304C10.14 11.671 9.94925 11.7501 9.75034 11.7501ZM13.6878 11.9376C13.5024 11.9376 13.3212 11.8826 13.167 11.7796C13.0128 11.6765 12.8927 11.5301 12.8217 11.3588C12.7507 11.1875 12.7322 10.999 12.7684 10.8172C12.8045 10.6353 12.8938 10.4683 13.0249 10.3371C13.156 10.206 13.3231 10.1167 13.5049 10.0806C13.6868 10.0444 13.8753 10.063 14.0466 10.1339C14.2179 10.2049 14.3643 10.325 14.4673 10.4792C14.5704 10.6334 14.6253 10.8146 14.6253 11.0001C14.6253 11.2487 14.5266 11.4872 14.3508 11.663C14.1749 11.8388 13.9365 11.9376 13.6878 11.9376ZM15.7503 14.0001C15.5648 14.0001 15.3835 13.945 15.2293 13.8419C15.075 13.7388 14.9549 13.5922 14.884 13.4208C14.8131 13.2493 14.7947 13.0607 14.831 12.8788C14.8674 12.6969 14.9569 12.5298 15.0883 12.3988C15.2196 12.2678 15.3869 12.1787 15.5689 12.1428C15.7509 12.1069 15.9395 12.1258 16.1107 12.1971C16.282 12.2684 16.4283 12.3889 16.531 12.5434C16.6337 12.6979 16.6883 12.8794 16.6878 13.0649C16.6872 13.3131 16.5882 13.551 16.4124 13.7263C16.2367 13.9016 15.9986 14.0001 15.7503 14.0001ZM15.7503 9.87505C15.5649 9.87505 15.3837 9.82007 15.2295 9.71706C15.0753 9.61404 14.9552 9.46763 14.8842 9.29632C14.8132 9.12501 14.7947 8.93651 14.8309 8.75466C14.867 8.5728 14.9563 8.40575 15.0874 8.27464C15.2185 8.14353 15.3856 8.05424 15.5674 8.01807C15.7493 7.98189 15.9378 8.00046 16.1091 8.07142C16.2804 8.14237 16.4268 8.26254 16.5298 8.41671C16.6329 8.57088 16.6878 8.75213 16.6878 8.93755C16.6878 9.1862 16.5891 9.42465 16.4133 9.60047C16.2374 9.77628 15.999 9.87505 15.7503 9.87505ZM17.8128 11.9376C17.6274 11.9376 17.4462 11.8826 17.292 11.7796C17.1378 11.6765 17.0177 11.5301 16.9467 11.3588C16.8757 11.1875 16.8572 10.999 16.8934 10.8172C16.9295 10.6353 17.0188 10.4683 17.1499 10.3371C17.281 10.206 17.4481 10.1167 17.6299 10.0806C17.8118 10.0444 18.0003 10.063 18.1716 10.1339C18.3429 10.2049 18.4893 10.325 18.5923 10.4792C18.6954 10.6334 18.7503 10.8146 18.7503 11.0001C18.7503 11.2487 18.6516 11.4872 18.4758 11.663C18.2999 11.8388 18.0615 11.9376 17.8128 11.9376Z" />
</svg>
