<svg viewBox="0 0 21 21" xmlns="http://www.w3.org/2000/svg">
<path fill-rule="evenodd" clip-rule="evenodd" d="M1.02 6.323C0.5 7.27 0.5 8.415 0.5 10.703V12.225C0.5 16.125 0.5 18.076 1.672 19.288C2.844 20.5 4.729 20.5 8.5 20.5H12.5C16.271 20.5 18.157 20.5 19.328 19.288C20.499 18.076 20.5 16.126 20.5 12.225V10.704C20.5 8.415 20.5 7.271 19.98 6.323C19.462 5.374 18.513 4.786 16.616 3.608L14.616 2.367C12.611 1.122 11.608 0.5 10.5 0.5C9.392 0.5 8.39 1.122 6.384 2.367L4.384 3.608C2.487 4.786 1.539 5.374 1.02 6.323ZM9.75 16.5C9.75 16.6989 9.82902 16.8897 9.96967 17.0303C10.1103 17.171 10.3011 17.25 10.5 17.25C10.6989 17.25 10.8897 17.171 11.0303 17.0303C11.171 16.8897 11.25 16.6989 11.25 16.5V13.5C11.25 13.3011 11.171 13.1103 11.0303 12.9697C10.8897 12.829 10.6989 12.75 10.5 12.75C10.3011 12.75 10.1103 12.829 9.96967 12.9697C9.82902 13.1103 9.75 13.3011 9.75 13.5V16.5Z" />
</svg>
