<svg viewBox="0 0 25 25" fill="none" xmlns="http://www.w3.org/2000/svg">
<g>
<path d="M11.75 18.75H9.5C8.4 18.75 7.5 19.65 7.5 20.75V21H6.5C6.09 21 5.75 21.34 5.75 21.75C5.75 22.16 6.09 22.5 6.5 22.5H18.5C18.91 22.5 19.25 22.16 19.25 21.75C19.25 21.34 18.91 21 18.5 21H17.5V20.75C17.5 19.65 16.6 18.75 15.5 18.75H13.25V16.46C13 16.49 12.75 16.5 12.5 16.5C12.25 16.5 12 16.49 11.75 16.46V18.75Z"/>
<path d="M18.9803 12.14C19.6403 11.89 20.2203 11.48 20.6803 11.02C21.6103 9.99 22.2203 8.76 22.2203 7.32C22.2203 5.88 21.0903 4.75 19.6503 4.75H19.0903C18.763 4.07608 18.2529 3.50775 17.6181 3.1099C16.9833 2.71204 16.2494 2.5007 15.5003 2.5H9.50027C7.92027 2.5 6.56027 3.42 5.91027 4.75H5.35027C3.91027 4.75 2.78027 5.88 2.78027 7.32C2.78027 8.76 3.39027 9.99 4.32027 11.02C4.78027 11.48 5.36027 11.89 6.02027 12.14C6.54266 13.4299 7.43872 14.5343 8.59338 15.3112C9.74804 16.0881 11.1086 16.5021 12.5003 16.5C15.4403 16.5 17.9403 14.7 18.9803 12.14ZM15.3403 8.95L14.7203 9.71C14.6203 9.82 14.5503 10.04 14.5603 10.19L14.6203 11.17C14.6603 11.77 14.2303 12.08 13.6703 11.86L12.7603 11.5C12.5905 11.45 12.41 11.45 12.2403 11.5L11.3303 11.86C10.7703 12.08 10.3403 11.77 10.3803 11.17L10.4403 10.19C10.4441 10.0163 10.3875 9.84668 10.2803 9.71L9.66027 8.95C9.27027 8.49 9.44027 7.98 10.0203 7.83L10.9703 7.59C11.1203 7.55 11.3003 7.41 11.3803 7.28L11.9103 6.46C12.2403 5.95 12.7603 5.95 13.0903 6.46L13.6203 7.28C13.7003 7.41 13.8803 7.55 14.0303 7.59L14.9803 7.83C15.5603 7.98 15.7303 8.49 15.3403 8.95Z"/>
</g>
</svg>
