<svg viewBox="0 0 20 21" xmlns="http://www.w3.org/2000/svg">
<mask id="mask0_195_474" style="mask-type:luminance" maskUnits="userSpaceOnUse" x="0" y="0">
<path d="M17.5 1.5H2.5C2.10218 1.5 1.72064 1.65804 1.43934 1.93934C1.15804 2.22064 1 2.60218 1 3V18C1 18.3978 1.15804 18.7794 1.43934 19.0607C1.72064 19.342 2.10218 19.5 2.5 19.5H17.5C17.8978 19.5 18.2794 19.342 18.5607 19.0607C18.842 18.7794 19 18.3978 19 18V3C19 2.60218 18.842 2.22064 18.5607 1.93934C18.2794 1.65804 17.8978 1.5 17.5 1.5Z" fill="white" stroke="white" stroke-width="2" stroke-linejoin="round"/>
<path d="M4.71973 13.4175L7.54823 10.589L9.74223 12.7775L14.9997 7.5" stroke="black" stroke-width="2" stroke-linecap="round" stroke-linejoin="round"/>
<path d="M11 7.5H15V11.5" stroke="black" stroke-width="2" stroke-linecap="round" stroke-linejoin="round"/>
</mask>
<g mask="url(#mask0_195_474)">
<path d="M-2 -1.5H22V22.5H-2V-1.5Z" fill="white" fill-opacity="0.2"/>
</g>
</svg>
